# xmcd
#
# Track frame offsets: 
#        150
#        15416
#        33563
#        51861
#        68008
#        88767
#        103913
#        123356
#        142992
#        159178
#        186993
#
# Disc length: 2758 seconds
#
# Revision: 3
# Processed by: cddbd v1.5.2PL0 Copyright (c) Steve Scherf et al.
# Submitted via: ExactAudioCopy v0.99pb4
#
DISCID=8d0ac40b
DTITLE=Александр Новиков - Красивоглазая
DYEAR=2000
DGENRE=Chanson
TTITLE0=Шансонье
TTITLE1=Красивоглазая
TTITLE2=Кравивая женщина
TTITLE3=Осень
TTITLE4=Рыжая
TTITLE5=Золотая це це
TTITLE6=Белый пароход
TTITLE7=Стриптезерша
TTITLE8=Локон
TTITLE9=Помнишь девочка
TTITLE10=Помнишь девочка (Bonus Video)
EXTD=
EXTT0=
EXTT1=
EXTT2=
EXTT3=
EXTT4=
EXTT5=
EXTT6=
EXTT7=
EXTT8=
EXTT9=
EXTT10=
PLAYORDER=
